HIERARCHY
ROOT hip
{
	OFFSET 0.000000 0.000000 0.000000 
	CHANNELS 6 Xposition Yposition Zposition Xrotation Zrotation Yrotation
	JOINT abdomen
	{
		OFFSET 0.000000 3.402643 0.000000 
		CHANNELS 3 Xrotation Zrotation Yrotation
		JOINT chest
		{
			OFFSET 0.000000 8.438565 -0.680529 
			CHANNELS 3 Xrotation Zrotation Yrotation
			JOINT neck
			{
				OFFSET 0.000000 10.207942 -0.272212 
				CHANNELS 3 Xrotation Zrotation Yrotation
				JOINT head
				{
					OFFSET 0.000000 3.130431 0.000000 
					CHANNELS 3 Xrotation Zrotation Yrotation
					End Site
					{
						OFFSET 0.000000 3.130435 0.000000 
					}
				}
			}
			JOINT lCollar
			{
				OFFSET 3.470700 6.669187 -0.816635 
				CHANNELS 3 Yrotation Zrotation Xrotation
				JOINT lShldr
				{
					OFFSET 3.198488 0.000000 0.000000 
					CHANNELS 3 Zrotation Yrotation Xrotation
					JOINT lForeArm
					{
						OFFSET 10.139888 0.000000 0.000000 
						CHANNELS 3 Yrotation Zrotation Xrotation
						JOINT lHand
						{
							OFFSET 8.370511 0.000000 0.000000 
							CHANNELS 3 Zrotation Yrotation Xrotation
							End Site
							{
								OFFSET 4.083176 0.000000 0.000000 
							}
						}
					}
				}
			}
			JOINT rCollar
			{
				OFFSET -3.470700 6.669187 -0.816635 
				CHANNELS 3 Yrotation Zrotation Xrotation
				JOINT rShldr
				{
					OFFSET -3.198488 0.000000 0.000000 
					CHANNELS 3 Zrotation Yrotation Xrotation
					JOINT rForeArm
					{
						OFFSET -10.139888 0.000000 0.000000 
						CHANNELS 3 Yrotation Zrotation Xrotation
						JOINT rHand
						{
							OFFSET -8.370511 0.000000 0.000000 
							CHANNELS 3 Zrotation Yrotation Xrotation
							End Site
							{
								OFFSET -4.083176 0.000000 0.000000 
							}
						}
					}
				}
			}
		}
	}
	JOINT lThigh
	{
		OFFSET 5.308129 -1.633274 1.361059 
		CHANNELS 3 Xrotation Zrotation Yrotation
		JOINT lShin
		{
			OFFSET -2.041588 -20.007561 0.000000 
			CHANNELS 3 Xrotation Zrotation Yrotation
			JOINT lFoot
			{
				OFFSET 0.000000 -19.190928 -1.224953 
				CHANNELS 3 Xrotation Yrotation Zrotation
				End Site
				{
					OFFSET 0.000000 -2.449906 4.627600 
				}
			}
		}
	}
	JOINT rThigh
	{
		OFFSET -5.308129 -1.633274 1.361059 
		CHANNELS 3 Xrotation Zrotation Yrotation
		JOINT rShin
		{
			OFFSET 2.041588 -20.007561 0.000000 
			CHANNELS 3 Xrotation Zrotation Yrotation
			JOINT rFoot
			{
				OFFSET 0.000000 -19.190928 -1.224953 
				CHANNELS 3 Xrotation Yrotation Zrotation
				End Site
				{
					OFFSET 0.000000 -2.449906 4.627600 
				}
			}
		}
	}
}
MOTION
Frames: 18
Frame Time: 0.016667
0.281109 49.723400 -1.396411 2.940236 2.242487 8.200033 8.255935 -1.815896 -1.358287 1.224204 2.626609 0.928997 -8.457032 0.000000 0.000000 21.440994 -1.888666 12.379736 -2.812533 -0.096698 -0.019508 -88.012817 0.063029 -4.062756 -8.234302 -12.091010 3.758675 23.204876 -11.314755 10.686601 2.792995 0.077173 -0.019521 78.219200 -4.748024 -15.308633 12.194278 5.882513 6.041365 -17.991236 21.125061 13.215827 -13.805080 10.592037 9.507034 11.627013 -3.165927 3.473909 5.792492 -2.614024 -11.151287 8.615566 -11.156132 -20.448559 3.992019 6.126904 3.568742 -12.647020 -7.552726 0.667446 
0.281168 49.723907 -1.394850 2.940236 2.242487 8.200033 8.255935 -1.815896 -1.358287 1.224204 2.626609 0.928997 -8.457032 0.000000 0.000000 21.440994 -1.888666 12.379736 -2.812533 -0.096698 -0.019508 -88.012817 0.063029 -4.062756 -8.234302 -12.091010 3.758675 23.196066 -11.224360 10.686332 2.792995 0.077173 -0.019521 78.219200 -4.748024 -15.308633 12.194278 5.882513 6.041365 -17.991236 21.125061 13.215827 -13.805081 10.592035 9.507035 11.627013 -3.165925 3.473909 5.792492 -2.614024 -11.151287 8.615566 -11.156134 -20.448559 3.992019 6.126904 3.568742 -12.647018 -7.552728 0.667445 
0.280624 49.724247 -1.395310 2.940236 2.242487 8.200033 8.255935 -1.815896 -1.358287 1.224204 2.626609 0.928997 -8.457032 0.000000 0.000000 21.440994 -1.888666 12.379736 -2.812533 -0.096698 -0.019508 -88.012817 0.063029 -4.062756 -8.234302 -12.091010 3.758675 23.196066 -11.224360 10.686332 2.792995 0.077173 -0.019521 78.219200 -4.748024 -15.308633 12.194278 5.882513 6.041365 -17.991236 21.125061 13.215827 -13.815161 10.592382 9.418818 11.611937 -3.144730 3.456880 5.870098 -2.630095 -11.264313 8.615567 -11.156132 -20.448559 3.992019 6.126904 3.568742 -12.647020 -7.552726 0.667446 
0.280083 49.724586 -1.395771 2.940236 2.242487 8.200033 8.255935 -1.815896 -1.358287 1.224204 2.626609 0.928997 -8.457032 0.000000 0.000000 21.440994 -1.888666 12.379736 -2.812533 -0.096698 -0.019508 -88.012817 0.063029 -4.062756 -8.234302 -12.091010 3.758675 23.196066 -11.224360 10.686332 2.792995 0.077173 -0.019521 78.219200 -4.748024 -15.308633 12.194278 5.882513 6.041365 -17.991236 21.125061 13.215827 -13.825245 10.592728 9.330599 11.611938 -3.144725 3.456881 5.929873 -2.653966 -11.360444 8.615567 -11.156132 -20.448559 3.992019 6.126904 3.568742 -12.647018 -7.552729 0.667446 
0.281520 49.724812 -1.395353 2.940236 2.242487 8.200033 8.255935 -1.815896 -1.358287 1.224204 2.626609 0.928997 -8.457032 0.000000 0.000000 21.440994 -1.888666 12.379736 -2.812533 -0.096698 -0.019508 -88.012817 0.063029 -4.062756 -8.236526 -12.085382 3.847632 23.196066 -11.224360 10.686332 2.792995 0.077173 -0.019521 78.209419 -4.668141 -15.295098 12.194278 5.882513 6.041365 -18.003620 21.212971 13.207571 -13.825246 10.592727 9.330600 11.611938 -3.144726 3.456881 5.933717 -2.692983 -11.178605 8.615567 -11.156132 -20.448559 3.992019 6.126904 3.568742 -12.647019 -7.552727 0.667445 
0.282954 49.725037 -1.394940 2.940236 2.242487 8.200033 8.255935 -1.815896 -1.358287 1.224204 2.626609 0.928997 -8.457032 0.000000 0.000000 21.440994 -1.888666 12.379736 -2.812533 -0.096698 -0.019508 -88.012817 0.063029 -4.062756 -8.238789 -12.079786 3.936583 23.196066 -11.224360 10.686332 2.792995 0.077173 -0.019521 78.209770 -4.578115 -15.293905 12.194278 5.882513 6.041365 -18.002167 21.301653 13.211438 -13.825245 10.592728 9.330599 11.611938 -3.144725 3.456881 5.921946 -2.766291 -11.018477 8.615567 -11.156132 -20.448559 3.992019 6.126901 3.568742 -12.647020 -7.552726 0.667446 
0.284863 49.725037 -1.394104 2.940236 2.242487 8.200033 8.255935 -1.815896 -1.358287 1.224204 2.626609 0.928997 -8.457032 0.000000 0.000000 21.440994 -1.888666 12.379736 -2.812533 -0.096698 -0.019508 -88.012604 0.059982 -3.974919 -8.238789 -12.079786 3.936583 23.196066 -11.224360 10.686332 2.792995 0.077173 -0.019521 78.209770 -4.578115 -15.293905 12.194278 5.882513 6.041365 -18.002167 21.301653 13.211438 -13.825245 10.592728 9.330600 11.611938 -3.144726 3.456881 5.921946 -2.766291 -11.018477 8.615566 -11.156132 -20.448559 3.992019 6.126904 3.568742 -12.647019 -7.552727 0.667445 
0.286768 49.725037 -1.393264 2.940236 2.242487 8.200033 8.255935 -1.815896 -1.358287 1.224204 2.626609 0.928997 -8.457032 0.000000 0.000000 21.440994 -1.888666 12.379736 -2.812533 -0.096698 -0.019508 -88.012421 0.067032 -3.896502 -8.238789 -12.079786 3.936583 23.196066 -11.224360 10.686332 2.792995 0.077173 -0.019521 78.209770 -4.578115 -15.293905 12.194278 5.882513 6.041365 -18.002167 21.301653 13.211438 -13.825244 10.592728 9.330599 11.611938 -3.144726 3.456881 5.921946 -2.766292 -11.018478 8.615567 -11.156132 -20.448559 3.992019 6.126904 3.568742 -12.647019 -7.552727 0.667445 
0.286235 49.726460 -1.394636 2.940236 2.242487 8.200033 8.255935 -1.815896 -1.358287 1.224204 2.626609 0.928997 -8.457032 0.000000 0.000000 21.440994 -1.888666 12.379736 -2.812533 -0.096698 -0.019508 -88.012421 0.067032 -3.896502 -8.238789 -12.079786 3.936583 23.196066 -11.224360 10.686332 2.792995 0.077173 -0.019521 78.209770 -4.578115 -15.293905 12.194278 5.882513 6.041365 -18.002167 21.301653 13.211438 -13.865040 10.554453 9.243772 11.682045 -3.223209 3.465123 5.903982 -2.747401 -11.218114 8.679729 -11.209482 -20.448517 4.028439 6.220772 3.486087 -12.780933 -7.525692 0.662409 
0.285702 49.727879 -1.396007 2.940236 2.242487 8.200033 8.255935 -1.815896 -1.358287 1.224204 2.626609 0.928997 -8.457032 0.000000 0.000000 21.440994 -1.888666 12.379736 -2.812533 -0.096698 -0.019508 -88.012421 0.067032 -3.896502 -8.238789 -12.079786 3.936583 23.196066 -11.224360 10.686332 2.792995 0.077173 -0.019521 78.209770 -4.578115 -15.293905 12.194278 5.882513 6.041365 -18.002167 21.301653 13.211438 -13.910358 10.511789 9.136591 11.759113 -3.310785 3.462088 5.914721 -2.714545 -11.380783 8.736682 -11.266565 -20.469658 4.059045 6.318285 3.431855 -12.876334 -7.535705 0.661422 
0.288875 49.729290 -1.395661 3.023945 2.213490 8.199650 8.255935 -1.815896 -1.358287 1.224204 2.626609 0.928997 -8.457032 0.000000 0.000000 21.440994 -1.888666 12.379736 -2.812533 -0.096698 -0.019508 -88.012421 0.067032 -3.896502 -8.238789 -12.079786 3.936583 23.196066 -11.224360 10.686332 2.792995 0.077173 -0.019521 78.209770 -4.578115 -15.293905 12.194278 5.882513 6.041365 -18.002167 21.301653 13.211438 -13.865040 10.554452 9.243772 11.682047 -3.223205 3.465123 5.882298 -2.741666 -11.299181 8.736682 -11.266565 -20.469658 4.059050 6.318278 3.431855 -12.904552 -7.451807 0.604408 
0.292048 49.730709 -1.395315 3.106261 2.174827 8.199646 8.255935 -1.815896 -1.358287 1.224204 2.626609 0.928997 -8.457032 0.000000 0.000000 21.440994 -1.888666 12.379736 -2.812533 -0.096698 -0.019508 -88.012421 0.067032 -3.896502 -8.238789 -12.079786 3.936583 23.196066 -11.224360 10.686332 2.792995 0.077173 -0.019521 78.209770 -4.578115 -15.293905 12.194278 5.882513 6.041365 -18.002167 21.301653 13.211438 -13.825245 10.592727 9.330600 11.611938 -3.144725 3.456880 5.853095 -2.790225 -11.224451 8.736682 -11.266565 -20.469658 4.059045 6.318282 3.431855 -12.928176 -7.379498 0.553322 
0.293884 49.730709 -1.394506 3.106261 2.174827 8.199646 8.255935 -1.815896 -1.358287 1.224204 2.626609 0.928997 -8.457032 0.000000 0.000000 21.440994 -1.888666 12.379736 -2.812533 -0.096698 -0.019508 -88.012421 0.067032 -3.896502 -8.238789 -12.079786 3.936583 23.196066 -11.224360 10.686332 2.792995 0.077173 -0.019521 78.200653 -4.490664 -15.291950 12.105657 5.883000 6.043392 -18.002167 21.301653 13.211438 -13.825245 10.592727 9.330600 11.611938 -3.144725 3.456880 5.853094 -2.790225 -11.224452 8.674773 -11.303667 -20.463362 4.029665 6.232133 3.398526 -12.822401 -7.420438 0.625552 
0.295718 49.730709 -1.393702 3.106261 2.174827 8.199646 8.255935 -1.815896 -1.358287 1.224204 2.626609 0.928997 -8.457032 0.000000 0.000000 21.440994 -1.888666 12.379736 -2.812533 -0.096698 -0.019508 -88.012421 0.067032 -3.896502 -8.238789 -12.079786 3.936583 23.196066 -11.224360 10.686332 2.792995 0.077173 -0.019521 78.200951 -4.400638 -15.290775 12.016003 5.893197 6.045404 -18.002167 21.301653 13.211438 -13.825246 10.592726 9.330600 11.611938 -3.144723 3.456880 5.853094 -2.790225 -11.224451 8.620720 -11.345973 -20.466917 3.988562 6.141931 3.383799 -12.724039 -7.426086 0.717653 
0.297036 49.732124 -1.394213 3.106261 2.174827 8.199646 8.255935 -1.815896 -1.358287 1.224204 2.626609 0.928997 -8.457032 0.000000 0.000000 21.440994 -1.888666 12.379736 -2.812533 -0.096698 -0.019508 -87.924728 0.063245 -3.896748 -8.238789 -12.079786 3.936583 23.196066 -11.224360 10.686332 2.792995 0.077173 -0.019521 78.200951 -4.400638 -15.290775 12.016003 5.893197 6.045404 -18.002167 21.301653 13.211438 -13.905061 10.487073 9.344368 11.611629 -3.144622 3.447142 5.851989 -2.767070 -11.217039 8.620718 -11.345970 -20.466917 3.988562 6.141931 3.383799 -12.724040 -7.426086 0.717654 
0.298354 49.733540 -1.394725 3.106261 2.174827 8.199646 8.255935 -1.815896 -1.358287 1.224204 2.626609 0.928997 -8.457032 0.000000 0.000000 21.440994 -1.888666 12.379736 -2.812533 -0.096698 -0.019508 -87.837044 0.069218 -3.896645 -8.238789 -12.079786 3.936583 23.196066 -11.224360 10.686332 2.792995 0.077173 -0.019521 78.200951 -4.400638 -15.290775 12.016003 5.893197 6.045404 -18.002167 21.301653 13.211438 -13.980138 10.386279 9.357100 11.614005 -3.133525 3.428573 5.855879 -2.782304 -11.242346 8.620720 -11.345973 -20.466917 3.988562 6.141931 3.383799 -12.724039 -7.426086 0.717654 
0.302026 49.734955 -1.393107 3.106261 2.174827 8.199646 8.255935 -1.815896 -1.358287 1.224204 2.626609 0.928997 -8.457032 0.000000 0.000000 21.440994 -1.888666 12.379736 -2.812533 -0.096698 -0.019508 -87.827278 -0.018316 -3.890215 -8.238789 -12.079786 3.936583 23.196066 -11.224360 10.686332 2.792995 0.077173 -0.019521 78.200951 -4.400638 -15.290775 12.016003 5.893197 6.045404 -18.010864 21.392548 13.211684 -13.980137 10.386284 9.357100 11.614005 -3.133524 3.428573 5.855876 -2.782304 -11.242346 8.620718 -11.345971 -20.466917 3.988562 6.141931 3.383799 -12.724039 -7.426086 0.717653 
0.305692 49.736374 -1.391492 3.106261 2.174827 8.199646 8.255935 -1.815896 -1.358287 1.224204 2.626609 0.928997 -8.457032 0.000000 0.000000 21.440994 -1.888666 12.379736 -2.812533 -0.096698 -0.019508 -87.827271 -0.106143 -3.893555 -8.238789 -12.079786 3.936583 23.196066 -11.224360 10.686332 2.792995 0.077173 -0.019521 78.200951 -4.400638 -15.290775 12.016003 5.893197 6.045404 -18.021713 21.474699 13.215700 -13.980137 10.386284 9.357100 11.614005 -3.133525 3.428573 5.855874 -2.782303 -11.242345 8.620718 -11.345971 -20.466917 3.988562 6.141931 3.383799 -12.724039 -7.426086 0.717653 
